<svg width="64" height="64" viewBox="0 0 64 64" fill="none" xmlns="http://www.w3.org/2000/svg">
<path d="M0 32C0 14.3269 14.3269 0 32 0C49.6731 0 64 14.3269 64 32C64 49.6731 49.6731 64 32 64C14.3269 64 0 49.6731 0 32Z" fill="#AD46FF"/>
<path d="M36 18.6666H24C23.2927 18.6666 22.6145 18.9476 22.1144 19.4477C21.6143 19.9478 21.3333 20.626 21.3333 21.3333V42.6666C21.3333 43.3739 21.6143 44.0521 22.1144 44.5522C22.6145 45.0523 23.2927 45.3333 24 45.3333H40C40.7072 45.3333 41.3855 45.0523 41.8856 44.5522C42.3857 44.0521 42.6666 43.3739 42.6666 42.6666V25.3333L36 18.6666Z" stroke="white" stroke-width="2.66667" stroke-linecap="round" stroke-linejoin="round"/>
<path d="M34.6667 18.6666V24C34.6667 24.7072 34.9476 25.3855 35.4477 25.8856C35.9478 26.3857 36.6261 26.6666 37.3334 26.6666H42.6667" stroke="white" stroke-width="2.66667" stroke-linecap="round" stroke-linejoin="round"/>
<path d="M29.3334 28H26.6667" stroke="white" stroke-width="2.66667" stroke-linecap="round" stroke-linejoin="round"/>
<path d="M37.3334 33.3334H26.6667" stroke="white" stroke-width="2.66667" stroke-linecap="round" stroke-linejoin="round"/>
<path d="M37.3334 38.6667H26.6667" stroke="white" stroke-width="2.66667" stroke-linecap="round" stroke-linejoin="round"/>
</svg>
